:SAMPLES-PER-SECOND 24
:FULLY-SPECIFIED
:DEGREES
336
root  4.08545 40.0447 20.9047 6.76147 0.28009 -0.14856
RightUpLeg  -5.34707 -6.63201 -4.27021
RightLeg  11.9384 -17.8446 -3.54651
RightFoot  -7.99979 -0.13234 2.66316
RightToes  -2.08645e-008 3.77894e-005 6.81332e-007
Spine  -0.497789 -2.11851 3.06687
Spine1  8.68854 -4.17808 6.87279
HEad  -27.8492 23.7449 -25.2606
LeftShoulder1  7.44777 -13.4264 -37.8869
LeftArm  9.48587 23.1003 -31.2981
LeftForeArm  133.525 -79.8075 -115.218
LeftHand  -0.464487 -3.1545 6.55273
RightShoulder  3.77499 6.46934 31.9641
RightArm  12.6208 -11.2611 35.5211
RightForeArm  47.8793 73.3521 33.8847
RightHand  -0.63876 7.64312 -6.04295
LeftUpLeg  -15.4981 26.1531 2.6665
LeftLeg  27.2845 22.0951 12.2066
LeftFoot  -7.68581 0.219442 -5.45038
LeftToes  1.24767e-006 1.47042e-008 1.32732e-009
337
root  4.4609 39.9776 21.0562 6.62622 5.59192 -1.13922
RightUpLeg  -3.42577 -7.72481 -3.96546
RightLeg  10.9918 -21.6095 -2.78654
RightFoot  -7.77052 -0.183848 4.19856
RightToes  -2.08645e-008 3.77894e-005 6.81332e-007
Spine  -2.08813 -1.97957 3.46842
Spine1  9.43308 -4.25706 7.33125
HEad  -27.0094 22.0191 -24.1878
LeftShoulder1  7.41898 -13.3691 -37.8668
LeftArm  8.60672 25.5863 -31.743
LeftForeArm  131.638 -79.8971 -113.787
LeftHand  -0.42291 -3.0815 6.03427
RightShoulder  3.85011 6.53867 32.4536
RightArm  12.6691 -11.9054 36.1071
RightForeArm  47.0299 72.7785 32.4161
RightHand  -0.49242 7.74746 -4.70159
LeftUpLeg  -15.2009 28.9994 1.97145
LeftLeg  26.0204 22.2811 11.6987
LeftFoot  -6.84229 0.25077 -5.33246
LeftToes  1.24767e-006 1.47042e-008 1.32732e-009
338
root  4.95226 39.8265 21.1476 6.68091 10.8832 -2.08667
RightUpLeg  -2.73199 -9.4283 -3.66449
RightLeg  11.8449 -25.377 -3.01118
RightFoot  -7.9119 -0.180662 4.23614
RightToes  -2.08645e-008 3.77894e-005 6.81332e-007
Spine  -3.31197 -1.6255 3.62851
Spine1  9.53591 -4.00815 7.61974
HEad  -26.0729 20.2073 -22.6224
LeftShoulder1  7.36892 -13.3032 -37.7466
LeftArm  8.26678 27.4302 -32.1055
LeftForeArm  129.568 -80.0246 -111.891
LeftHand  -0.442182 -3.05274 6.31837
RightShoulder  3.86414 6.52088 32.6622
RightArm  11.8664 -12.9013 35.9502
RightForeArm  45.5652 71.5593 29.6813
RightHand  -0.386928 8.07967 -3.7021
LeftUpLeg  -14.5129 29.6236 1.35644
LeftLeg  22.9765 21.6424 10.0416
LeftFoot  -6.52081 0.305073 -6.31727
LeftToes  1.24767e-006 1.47042e-008 1.32732e-009
339
root  5.58646 39.6273 21.2149 6.55981 16.3528 -2.68427
RightUpLeg  -2.68235 -14.8353 -3.80805
RightLeg  14.4588 -24.1968 -4.41518
RightFoot  -8.74924 -0.214342 6.9834
RightToes  -2.08645e-008 3.77894e-005 6.81332e-007
Spine  -4.18178 -1.49585 2.94839
Spine1  9.74935 -3.95748 7.81351
HEad  -25.8987 19.1153 -21.3835
LeftShoulder1  7.3106 -13.2448 -37.5586
LeftArm  7.51239 29.1333 -32.642
LeftForeArm  127.498 -80.1201 -110.164
LeftHand  -0.473466 -3.11181 6.70608
RightShoulder  3.93334 6.58299 33.1103
RightArm  11.0809 -13.1954 34.1242
RightForeArm  42.1496 68.8184 25.0666
RightHand  -0.481408 8.54989 -4.38595
LeftUpLeg  -13.291 26.5853 0.934332
LeftLeg  19.8187 21.0069 8.42805
LeftFoot  -8.58891 0.217449 -6.87365
LeftToes  1.24767e-006 1.47042e-008 1.32732e-009
340
root  6.32262 39.4746 21.2114 6.5603 22.0849 -2.46741
RightUpLeg  -5.1604 -21.883 -4.46379
RightLeg  22.0733 -21.2148 -9.16653
RightFoot  -8.20081 -0.432722 12.8142
RightToes  -2.08645e-008 3.77894e-005 6.81332e-007
Spine  -4.63012 -1.49928 0.983633
Spine1  10.6327 -4.19665 8.86877
HEad  -27.4468 18.939 -21.518
LeftShoulder1  7.41613 -13.3164 -37.9829
LeftArm  5.96924 29.8633 -32.86
LeftForeArm  122.701 -80.3525 -105.588
LeftHand  -0.468208 -2.82654 6.84543
RightShoulder  4.02374 6.67647 33.6389
RightArm  9.88136 -12.6633 31.4698
RightForeArm  37.0977 63.7261 19.3752
RightHand  -0.568079 8.98033 -4.95585
LeftUpLeg  -12.8423 19.5473 -0.00574657
LeftLeg  19.1059 21.7238 8.30621
LeftFoot  -10.7161 0.0989935 -6.27977
LeftToes  1.24767e-006 1.47042e-008 1.32732e-009
